<svg width="24" height="24" viewBox="0 0 24 24" fill="none" xmlns="http://www.w3.org/2000/svg">
<path d="M17.4 14.8499V5.4999C17.4 4.0499 16.25 2.8999 14.8 2.8999H5.50002C4.05002 2.8999 2.90002 4.0499 2.90002 5.4999V14.8499C2.90002 16.2999 4.05002 17.4499 5.50002 17.4499H14.85C16.25 17.3999 17.4 16.2499 17.4 14.8499ZM19.6 7.4999V15.5499C19.6 17.7999 17.75 19.6499 15.5 19.6499H7.45002C7.15002 19.6499 7.00002 19.9999 7.20002 20.1999C7.70002 20.7499 8.40002 21.0999 9.25002 21.0999H15.95C18.8 21.0999 21.1 18.7999 21.1 15.9499V9.2499C21.1 8.4499 20.75 7.6999 20.2 7.1999C19.95 6.9999 19.6 7.1999 19.6 7.4999Z" fill="white"/>
</svg>
