<svg width="16" height="16" viewBox="0 0 16 16" fill="none" xmlns="http://www.w3.org/2000/svg">
<path d="M3.64645 8.35372C3.45119 8.15845 3.45119 7.84187 3.64645 7.64661L4.97978 6.31328C5.17504 6.11802 5.49163 6.11802 5.68689 6.31328C5.88215 6.50854 5.88215 6.82512 5.68689 7.02038L5.20711 7.50016L10 7.50016C10.2761 7.50016 10.5 7.72402 10.5 8.00016C10.5 8.27631 10.2761 8.50016 10 8.50016L5.20711 8.50016L5.68689 8.97994C5.88215 9.17521 5.88215 9.49179 5.68689 9.68705C5.49163 9.88231 5.17504 9.88231 4.97978 9.68705L3.64645 8.35372Z" fill="white"/>
<path fill-rule="evenodd" clip-rule="evenodd" d="M9.2969 0.833496H10.0367C10.9485 0.833483 11.6833 0.833472 12.2613 0.911179C12.8614 0.991857 13.3666 1.16445 13.7679 1.56573C14.1692 1.96701 14.3418 2.47226 14.4225 3.07233C14.5002 3.65031 14.5002 4.38519 14.5001 5.29692V10.7034C14.5002 11.6151 14.5002 12.35 14.4225 12.928C14.3418 13.5281 14.1692 14.0333 13.7679 14.4346C13.3666 14.8359 12.8614 15.0085 12.2613 15.0891C11.6833 15.1669 10.9485 15.1668 10.0367 15.1668H9.2969C8.38517 15.1668 7.65029 15.1669 7.07231 15.0891C6.47224 15.0085 5.96699 14.8359 5.56571 14.4346C5.29975 14.1686 5.13379 13.8564 5.0287 13.5001C4.39445 13.4992 3.86604 13.4922 3.43792 13.4347C2.92862 13.3662 2.48707 13.218 2.1346 12.8656C1.78214 12.5131 1.63395 12.0715 1.56548 11.5622C1.49997 11.075 1.49998 10.4579 1.5 9.70265V6.2977C1.49998 5.54249 1.49997 4.92532 1.56548 4.43809C1.63395 3.92879 1.78214 3.48723 2.1346 3.13477C2.48707 2.7823 2.92862 2.63412 3.43792 2.56564C3.86604 2.50808 4.39445 2.50111 5.0287 2.50027C5.13379 2.14391 5.29975 1.83169 5.56571 1.56573C5.96699 1.16445 6.47224 0.991857 7.07231 0.911179C7.65029 0.833472 8.38517 0.833483 9.2969 0.833496ZM4.83464 11.3363C4.83704 11.766 4.84413 12.153 4.86856 12.4996C4.31224 12.4974 3.89867 12.4876 3.57117 12.4436C3.17276 12.39 2.9774 12.2941 2.84171 12.1585C2.70602 12.0228 2.61013 11.8274 2.55656 11.429C2.50106 11.0162 2.5 10.4666 2.5 9.66683V6.3335C2.5 5.53369 2.50106 4.98413 2.55656 4.57133C2.61013 4.17292 2.70602 3.97757 2.84171 3.84187C2.9774 3.70618 3.17276 3.61029 3.57117 3.55672C3.89867 3.51269 4.31224 3.50293 4.86856 3.50077C4.84413 3.84732 4.83704 4.23436 4.83464 4.66405C4.83311 4.94019 5.05572 5.16529 5.33185 5.16682C5.60799 5.16836 5.83309 4.94575 5.83463 4.66961C5.83869 3.94062 5.85762 3.42389 5.92965 3.03173C5.99906 2.65385 6.11052 2.43514 6.27282 2.27284C6.45733 2.08833 6.71638 1.96803 7.20556 1.90226C7.70913 1.83456 8.37653 1.8335 9.33348 1.8335H10.0001C10.9571 1.8335 11.6245 1.83456 12.1281 1.90226C12.6172 1.96803 12.8763 2.08833 13.0608 2.27284C13.2453 2.45735 13.3656 2.71639 13.4314 3.20558C13.4991 3.70914 13.5001 4.37655 13.5001 5.3335V10.6668C13.5001 11.6238 13.4991 12.2912 13.4314 12.7948C13.3656 13.2839 13.2453 13.543 13.0608 13.7275C12.8763 13.912 12.6172 14.0323 12.1281 14.0981C11.6245 14.1658 10.9571 14.1668 10.0001 14.1668H9.33348C8.37653 14.1668 7.70913 14.1658 7.20556 14.0981C6.71638 14.0323 6.45733 13.912 6.27282 13.7275C6.11052 13.5652 5.99906 13.3465 5.92965 12.9686C5.85762 12.5764 5.83869 12.0597 5.83463 11.3307C5.83309 11.0546 5.60799 10.832 5.33185 10.8335C5.05572 10.835 4.83311 11.0601 4.83464 11.3363Z" fill="white"/>
</svg>
