<?xml version="1.0" encoding="UTF-8" standalone="no" ?>
<!DOCTYPE svg PUBLIC "-//W3C//DTD SVG 1.1//EN" "http://www.w3.org/Graphics/SVG/1.1/DTD/svg11.dtd">
<svg xmlns="http://www.w3.org/2000/svg" xmlns:xlink="http://www.w3.org/1999/xlink" version="1.1" width="1080" height="1080" viewBox="0 0 1080 1080" xml:space="preserve">
<desc>Created with Fabric.js 5.2.4</desc>
<defs>
</defs>
<g transform="matrix(1 0 0 1 540 540)" id="5b1bba45-ef0e-4157-8a2c-08c6ecd0710b"  >
<rect style="stroke: none; stroke-width: 1; stroke-dasharray: none; stroke-linecap: butt; stroke-dashoffset: 0; stroke-linejoin: miter; stroke-miterlimit: 4; fill: rgb(255,255,255); fill-rule: nonzero; opacity: 1; visibility: hidden;" vector-effect="non-scaling-stroke"  x="-540" y="-540" rx="0" ry="0" width="1080" height="1080" />
</g>
<g transform="matrix(1 0 0 1 540 540)" id="fcec69ed-b001-462d-8e50-cd15d07e88ab"  >
</g>
<g transform="matrix(54 0 0 54 540 540)"  >
<path style="stroke: none; stroke-width: 1; stroke-dasharray: none; stroke-linecap: butt; stroke-dashoffset: 0; stroke-linejoin: miter; stroke-miterlimit: 4; fill: rgb(135,126,255); fill-rule: evenodd; opacity: 1;"  transform=" translate(-9.7, -10.03)" d="M 11.895 3.84001 C 11.9057 3.84953 11.9164 3.85908 11.9272 3.86865 L 15.2721 6.84185 C 15.8962 7.39659 16.4136 7.85646 16.7688 8.27392 C 17.1421 8.71268 17.408 9.18505 17.408 9.76958 C 17.408 10.3541 17.1421 10.8265 16.7688 11.2652 C 16.4136 11.6827 15.8962 12.1426 15.2721 12.6973 L 11.9272 15.6705 C 11.9164 15.6801 11.9057 15.6896 11.895 15.6992 C 11.6246 15.9395 11.3723 16.1639 11.1543 16.3078 C 10.9403 16.4492 10.551 16.6545 10.1149 16.4586 C 9.67888 16.2628 9.57372 15.8355 9.53714 15.5816 C 9.49988 15.3231 9.49994 14.9854 9.5 14.6236 C 9.5 14.6093 9.5 14.5949 9.5 14.5805 L 9.5 13.2734 C 8.29042 13.3568 7.06469 13.678 5.99252 14.2005 C 4.73173 14.8148 3.72483 15.6859 3.17837 16.7268 C 3.04471 16.9814 2.75458 17.1119 2.47539 17.0431 C 2.1962 16.9742 2 16.7238 2 16.4362 C 2 12.5021 3.15115 9.94047 4.79708 8.36562 C 6.23175 6.99291 7.9803 6.42964 9.5 6.31176 L 9.5 4.95862 C 9.5 4.94422 9.5 4.92985 9.5 4.91552 C 9.49994 4.55375 9.49988 4.2161 9.53714 3.95756 C 9.57372 3.70366 9.67888 3.27634 10.1149 3.08052 C 10.551 2.8847 10.9403 3.09 11.1543 3.23133 C 11.3723 3.37526 11.6246 3.59962 11.895 3.84001 Z M 10.7526 4.50038 C 10.8468 4.58113 10.9593 4.68072 11.0967 4.80291 L 14.407 7.74535 C 15.0746 8.33875 15.525 8.74108 15.8168 9.084 C 16.0971 9.41334 16.158 9.60567 16.158 9.76958 C 16.158 9.93349 16.0971 10.1258 15.8168 10.4552 C 15.525 10.7981 15.0746 11.2004 14.407 11.7938 L 11.0967 14.7363 C 10.9593 14.8584 10.8468 14.958 10.7526 15.0388 C 10.7503 14.9147 10.75 14.7645 10.75 14.5805 L 10.75 12.6267 C 10.75 12.2815 10.4702 12.0017 10.125 12.0017 C 8.53119 12.0017 6.87496 12.38 5.44498 13.0768 C 4.6793 13.4499 3.9665 13.9205 3.3616 14.4836 C 3.66891 11.9444 4.57701 10.3062 5.66125 9.26879 C 7.01129 7.97706 8.71702 7.53744 10.125 7.53744 C 10.4702 7.53744 10.75 7.25762 10.75 6.91244 L 10.75 4.95862 C 10.75 4.7747 10.7503 4.62445 10.7526 4.50038 Z" stroke-linecap="round" />
</g>
<g transform="matrix(2.7 0 0 2.7 240.67 707.88)" id="63fc000e-da09-4fa2-bc5a-9858a3c8aa16"  >
<circle style="stroke: rgb(0,0,0); stroke-width: 0; stroke-dasharray: none; stroke-linecap: butt; stroke-dashoffset: 0; stroke-linejoin: miter; stroke-miterlimit: 4; fill: rgb(134,127,255); fill-rule: nonzero; opacity: 1;" vector-effect="non-scaling-stroke"  cx="0" cy="0" r="35" />
</g>
<g transform="matrix(4.21 0 0 4.21 377.26 594.54)" id="63fc000e-da09-4fa2-bc5a-9858a3c8aa16"  >
<circle style="stroke: rgb(0,0,0); stroke-width: 0; stroke-dasharray: none; stroke-linecap: butt; stroke-dashoffset: 0; stroke-linejoin: miter; stroke-miterlimit: 4; fill: rgb(134,127,255); fill-rule: nonzero; opacity: 1;" vector-effect="non-scaling-stroke"  cx="0" cy="0" r="35" />
</g>
<g transform="matrix(4.21 0 0 4.21 494.59 540)" id="63fc000e-da09-4fa2-bc5a-9858a3c8aa16"  >
<circle style="stroke: rgb(0,0,0); stroke-width: 0; stroke-dasharray: none; stroke-linecap: butt; stroke-dashoffset: 0; stroke-linejoin: miter; stroke-miterlimit: 4; fill: rgb(134,127,255); fill-rule: nonzero; opacity: 1;" vector-effect="non-scaling-stroke"  cx="0" cy="0" r="35" />
</g>
<g transform="matrix(4.21 0 0 4.21 662.23 437.64)" id="63fc000e-da09-4fa2-bc5a-9858a3c8aa16"  >
<circle style="stroke: rgb(0,0,0); stroke-width: 0; stroke-dasharray: none; stroke-linecap: butt; stroke-dashoffset: 0; stroke-linejoin: miter; stroke-miterlimit: 4; fill: rgb(134,127,255); fill-rule: nonzero; opacity: 1;" vector-effect="non-scaling-stroke"  cx="0" cy="0" r="35" />
</g>
<g transform="matrix(2.54 0 0 2.54 625.49 316.62)" id="63fc000e-da09-4fa2-bc5a-9858a3c8aa16"  >
<circle style="stroke: rgb(0,0,0); stroke-width: 0; stroke-dasharray: none; stroke-linecap: butt; stroke-dashoffset: 0; stroke-linejoin: miter; stroke-miterlimit: 4; fill: rgb(134,127,255); fill-rule: nonzero; opacity: 1;" vector-effect="non-scaling-stroke"  cx="0" cy="0" r="35" />
</g>
<g transform="matrix(2.54 0 0 2.54 633.84 744.22)" id="63fc000e-da09-4fa2-bc5a-9858a3c8aa16"  >
<circle style="stroke: rgb(0,0,0); stroke-width: 0; stroke-dasharray: none; stroke-linecap: butt; stroke-dashoffset: 0; stroke-linejoin: miter; stroke-miterlimit: 4; fill: rgb(134,127,255); fill-rule: nonzero; opacity: 1;" vector-effect="non-scaling-stroke"  cx="0" cy="0" r="35" />
</g>
<g transform="matrix(3.26 0 0 3.26 679.04 631.81)" id="63fc000e-da09-4fa2-bc5a-9858a3c8aa16"  >
<circle style="stroke: rgb(0,0,0); stroke-width: 0; stroke-dasharray: none; stroke-linecap: butt; stroke-dashoffset: 0; stroke-linejoin: miter; stroke-miterlimit: 4; fill: rgb(134,127,255); fill-rule: nonzero; opacity: 1;" vector-effect="non-scaling-stroke"  cx="0" cy="0" r="35" />
</g>
<g transform="matrix(3.26 0 0 3.26 799.78 524.48)" id="63fc000e-da09-4fa2-bc5a-9858a3c8aa16"  >
<circle style="stroke: rgb(0,0,0); stroke-width: 0; stroke-dasharray: none; stroke-linecap: butt; stroke-dashoffset: 0; stroke-linejoin: miter; stroke-miterlimit: 4; fill: rgb(134,127,255); fill-rule: nonzero; opacity: 1;" vector-effect="non-scaling-stroke"  cx="0" cy="0" r="35" />
</g>
</svg>