<svg width="131" height="27" viewBox="0 0 131 27" fill="none" xmlns="http://www.w3.org/2000/svg">
<path d="M8.73694 21.3958C7.2101 21.3958 5.86233 21.1225 4.69363 20.5759C3.52494 20.0292 2.61072 19.247 1.95097 18.2291C1.29122 17.2112 0.961347 15.9859 0.961347 14.5533V13.7616H4.63708V14.5533C4.63708 15.7409 5.00466 16.6362 5.7398 17.2394C6.47495 17.8238 7.474 18.116 8.73694 18.116C10.0187 18.116 10.9707 17.8615 11.5927 17.3525C12.2336 16.8436 12.5541 16.1933 12.5541 15.4016C12.5541 14.8549 12.3938 14.4119 12.0734 14.0727C11.7718 13.7334 11.3194 13.46 10.7162 13.2527C10.1318 13.0265 9.41554 12.8191 8.56729 12.6306L7.91697 12.4893C6.55978 12.1877 5.39108 11.8107 4.41088 11.3583C3.44954 10.887 2.70497 10.2744 2.17717 9.52039C1.66822 8.76639 1.41374 7.7862 1.41374 6.5798C1.41374 5.37341 1.69649 4.34609 2.26199 3.49784C2.84634 2.63074 3.65689 1.97099 4.69363 1.5186C5.74923 1.04735 6.9839 0.811723 8.39764 0.811723C9.81139 0.811723 11.0649 1.05677 12.1582 1.54687C13.2704 2.01812 14.1374 2.73442 14.7595 3.69576C15.4004 4.63826 15.7208 5.8258 15.7208 7.2584V8.10665H12.0451V7.2584C12.0451 6.5044 11.8943 5.9012 11.5927 5.44881C11.31 4.97756 10.8953 4.63826 10.3486 4.43091C9.80196 4.20471 9.15164 4.09161 8.39764 4.09161C7.26665 4.09161 6.42783 4.30838 5.88118 4.74193C5.35338 5.15663 5.08948 5.73156 5.08948 6.4667C5.08948 6.9568 5.21201 7.3715 5.45706 7.7108C5.72095 8.0501 6.10738 8.33285 6.61633 8.55904C7.12527 8.78524 7.7756 8.98317 8.56729 9.15282L9.21762 9.29419C10.6314 9.59579 11.8566 9.98221 12.8934 10.4535C13.9489 10.9247 14.7689 11.5468 15.3533 12.3196C15.9376 13.0925 16.2298 14.0821 16.2298 15.2885C16.2298 16.4949 15.9188 17.5599 15.2967 18.4835C14.6935 19.3883 13.8264 20.1046 12.6954 20.6324C11.5833 21.1414 10.2638 21.3958 8.73694 21.3958ZM18.2782 21V6.97565H21.7843V8.81352H22.2932C22.5194 8.32342 22.9435 7.8616 23.5656 7.42805C24.1876 6.97565 25.1301 6.74945 26.3931 6.74945C27.4864 6.74945 28.4383 7.00393 29.2488 7.51287C30.0782 8.00297 30.7191 8.69099 31.1715 9.57694C31.6239 10.444 31.8501 11.4619 31.8501 12.6306V21H28.2875V12.9134C28.2875 11.8578 28.0236 11.0661 27.4958 10.5383C26.9868 10.0105 26.2517 9.74659 25.2903 9.74659C24.1971 9.74659 23.3488 10.1142 22.7456 10.8493C22.1424 11.5656 21.8408 12.5741 21.8408 13.8747V21H18.2782ZM39.2076 21.3958C38.2085 21.3958 37.3131 21.2262 36.5214 20.8869C35.7298 20.5288 35.0983 20.0198 34.627 19.3601C34.1746 18.6815 33.9484 17.8615 33.9484 16.9001C33.9484 15.9388 34.1746 15.1377 34.627 14.4968C35.0983 13.837 35.7392 13.3469 36.5497 13.0265C37.3791 12.6872 38.3216 12.5175 39.3772 12.5175H43.2226V11.7258C43.2226 11.0661 43.0152 10.5289 42.6006 10.1142C42.1859 9.68062 41.5261 9.46384 40.6213 9.46384C39.7354 9.46384 39.0756 9.67119 38.6421 10.0859C38.2085 10.4817 37.9258 11.0001 37.7938 11.641L34.5139 10.5383C34.7401 9.82199 35.0983 9.17167 35.5884 8.58732C36.0973 7.98412 36.7665 7.50345 37.5959 7.1453C38.4441 6.7683 39.4715 6.5798 40.6779 6.5798C42.5252 6.5798 43.986 7.04162 45.0605 7.96527C46.1349 8.88892 46.6721 10.2273 46.6721 11.9803V17.2112C46.6721 17.7767 46.936 18.0594 47.4638 18.0594H48.5948V21H46.2197C45.5223 21 44.9474 20.8304 44.495 20.4911C44.0426 20.1518 43.8164 19.6994 43.8164 19.1339V19.1056H43.2791C43.2037 19.3318 43.0341 19.6334 42.7702 20.0104C42.5063 20.3685 42.0916 20.689 41.5261 20.9717C40.9606 21.2545 40.1878 21.3958 39.2076 21.3958ZM39.8296 18.5118C40.8287 18.5118 41.6392 18.2385 42.2613 17.6918C42.9021 17.1263 43.2226 16.3818 43.2226 15.4581V15.1754H39.6317C38.9719 15.1754 38.4536 15.3167 38.0766 15.5995C37.6996 15.8822 37.5111 16.2781 37.5111 16.787C37.5111 17.296 37.709 17.7107 38.1048 18.0311C38.5007 18.3516 39.0756 18.5118 39.8296 18.5118ZM50.3514 26.655V6.97565H53.8575V8.67214H54.3664C54.6869 8.1255 55.1864 7.64482 55.865 7.23012C56.5436 6.79658 57.5144 6.5798 58.7773 6.5798C59.9083 6.5798 60.9545 6.86255 61.9158 7.42805C62.8772 7.9747 63.65 8.78524 64.2344 9.85969C64.8187 10.9341 65.1109 12.2348 65.1109 13.7616V14.214C65.1109 15.7409 64.8187 17.0415 64.2344 18.116C63.65 19.1904 62.8772 20.0104 61.9158 20.5759C60.9545 21.1225 59.9083 21.3958 58.7773 21.3958C57.9291 21.3958 57.2128 21.2922 56.6284 21.0848C56.0629 20.8963 55.6011 20.6513 55.243 20.3497C54.9037 20.0292 54.6303 19.7088 54.423 19.3883H53.914V26.655H50.3514ZM57.7029 18.2856C58.815 18.2856 59.7292 17.9369 60.4455 17.2394C61.1807 16.5231 61.5483 15.4864 61.5483 14.1292V13.8465C61.5483 12.4893 61.1807 11.4619 60.4455 10.7645C59.7104 10.0482 58.7962 9.69004 57.7029 9.69004C56.6096 9.69004 55.6954 10.0482 54.9602 10.7645C54.2251 11.4619 53.8575 12.4893 53.8575 13.8465V14.1292C53.8575 15.4864 54.2251 16.5231 54.9602 17.2394C55.6954 17.9369 56.6096 18.2856 57.7029 18.2856ZM66.8553 14.0444V13.592C66.8553 12.1217 67.1475 10.8682 67.7319 9.83142C68.3162 8.77582 69.089 7.9747 70.0504 7.42805C71.0306 6.86255 72.0956 6.5798 73.2455 6.5798C74.5273 6.5798 75.498 6.806 76.1578 7.2584C76.8175 7.7108 77.2982 8.18205 77.5998 8.67214H78.1087V6.97565H81.6148V23.4882C81.6148 24.4495 81.3321 25.213 80.7666 25.7785C80.2011 26.3628 79.4471 26.655 78.5046 26.655H69.1173V23.5447H77.2605C77.7883 23.5447 78.0522 23.262 78.0522 22.6965V19.049H77.5432C77.3547 19.3506 77.0908 19.6617 76.7515 19.9821C76.4122 20.2837 75.9599 20.5382 75.3944 20.7455C74.8289 20.9529 74.1126 21.0565 73.2455 21.0565C72.0956 21.0565 71.0306 20.7832 70.0504 20.2366C69.089 19.6711 68.3162 18.87 67.7319 17.8332C67.1475 16.7776 66.8553 15.5147 66.8553 14.0444ZM74.2634 17.9463C75.3567 17.9463 76.2709 17.5976 77.006 16.9001C77.7412 16.2027 78.1087 15.2225 78.1087 13.9596V13.6768C78.1087 12.395 77.7412 11.4148 77.006 10.7362C76.2897 10.0388 75.3755 9.69004 74.2634 9.69004C73.1701 9.69004 72.2558 10.0388 71.5207 10.7362C70.7855 11.4148 70.418 12.395 70.418 13.6768V13.9596C70.418 15.2225 70.7855 16.2027 71.5207 16.9001C72.2558 17.5976 73.1701 17.9463 74.2634 17.9463ZM84.7164 21V6.97565H88.2225V8.55904H88.7315C88.9388 7.99355 89.2781 7.57885 89.7494 7.31495C90.2395 7.05105 90.805 6.9191 91.4459 6.9191H93.1424V10.0859H91.3893C90.4845 10.0859 89.74 10.3309 89.1556 10.821C88.5713 11.2923 88.2791 12.0274 88.2791 13.0265V21H84.7164ZM99.1017 21.3958C98.1027 21.3958 97.2073 21.2262 96.4156 20.8869C95.6239 20.5288 94.9925 20.0198 94.5212 19.3601C94.0688 18.6815 93.8426 17.8615 93.8426 16.9001C93.8426 15.9388 94.0688 15.1377 94.5212 14.4968C94.9925 13.837 95.6334 13.3469 96.4439 13.0265C97.2733 12.6872 98.2158 12.5175 99.2714 12.5175H103.117V11.7258C103.117 11.0661 102.909 10.5289 102.495 10.1142C102.08 9.68062 101.42 9.46384 100.515 9.46384C99.6295 9.46384 98.9698 9.67119 98.5362 10.0859C98.1027 10.4817 97.8199 11.0001 97.688 11.641L94.4081 10.5383C94.6343 9.82199 94.9925 9.17167 95.4826 8.58732C95.9915 7.98412 96.6607 7.50345 97.4901 7.1453C98.3383 6.7683 99.3656 6.5798 100.572 6.5798C102.419 6.5798 103.88 7.04162 104.955 7.96527C106.029 8.88892 106.566 10.2273 106.566 11.9803V17.2112C106.566 17.7767 106.83 18.0594 107.358 18.0594H108.489V21H106.114C105.416 21 104.842 20.8304 104.389 20.4911C103.937 20.1518 103.711 19.6994 103.711 19.1339V19.1056H103.173C103.098 19.3318 102.928 19.6334 102.664 20.0104C102.4 20.3685 101.986 20.689 101.42 20.9717C100.855 21.2545 100.082 21.3958 99.1017 21.3958ZM99.7238 18.5118C100.723 18.5118 101.533 18.2385 102.155 17.6918C102.796 17.1263 103.117 16.3818 103.117 15.4581V15.1754H99.5259C98.8661 15.1754 98.3477 15.3167 97.9707 15.5995C97.5937 15.8822 97.4052 16.2781 97.4052 16.787C97.4052 17.296 97.6032 17.7107 97.999 18.0311C98.3949 18.3516 98.9698 18.5118 99.7238 18.5118ZM110.246 21V6.97565H113.752V8.50249H114.261C114.506 8.03125 114.911 7.62597 115.476 7.28667C116.042 6.92853 116.787 6.74945 117.71 6.74945C118.709 6.74945 119.51 6.94738 120.114 7.34322C120.717 7.72022 121.179 8.21975 121.499 8.84179H122.008C122.328 8.2386 122.781 7.73907 123.365 7.34322C123.949 6.94738 124.779 6.74945 125.853 6.74945C126.72 6.74945 127.503 6.93795 128.2 7.31495C128.916 7.6731 129.482 8.22917 129.897 8.98317C130.33 9.71832 130.547 10.6514 130.547 11.7824V21H126.984V12.0369C126.984 11.264 126.786 10.6891 126.391 10.3121C125.995 9.91624 125.439 9.71832 124.722 9.71832C123.912 9.71832 123.28 9.98221 122.828 10.51C122.394 11.019 122.178 11.7541 122.178 12.7155V21H118.615V12.0369C118.615 11.264 118.417 10.6891 118.021 10.3121C117.625 9.91624 117.069 9.71832 116.353 9.71832C115.542 9.71832 114.911 9.98221 114.459 10.51C114.025 11.019 113.808 11.7541 113.808 12.7155V21H110.246Z" fill="white"/>
</svg>
