<svg width="24" height="24" viewBox="0 0 24 24" fill="none" xmlns="http://www.w3.org/2000/svg">
<path fill-rule="evenodd" clip-rule="evenodd" d="M14.6338 4.57198C14.6466 4.5834 14.6594 4.59486 14.6724 4.60634L18.6863 8.17418C19.4352 8.83987 20.0561 9.39172 20.4823 9.89267C20.9303 10.4192 21.2494 10.986 21.2494 11.6875C21.2494 12.3889 20.9303 12.9558 20.4823 13.4822C20.0561 13.9832 19.4352 14.5351 18.6863 15.2007L14.6724 18.7686C14.6594 18.7801 14.6466 18.7915 14.6338 18.803C14.3093 19.0914 14.0065 19.3606 13.7449 19.5333C13.4881 19.703 13.021 19.9494 12.4976 19.7143C11.9744 19.4793 11.8482 18.9666 11.8043 18.6619C11.7596 18.3517 11.7597 17.9464 11.7598 17.5123C11.7598 17.4951 11.7598 17.4778 11.7598 17.4606V15.892C10.3083 15.9921 8.83739 16.3776 7.55079 17.0046C6.03784 17.7417 4.82956 18.787 4.17381 20.0361C4.01342 20.3416 3.66526 20.4982 3.33023 20.4157C2.99521 20.333 2.75977 20.0325 2.75977 19.6874C2.75977 14.9665 4.14115 11.8925 6.11626 10.0027C7.83787 8.35545 9.93613 7.67953 11.7598 7.53808V5.91431C11.7598 5.89703 11.7598 5.87978 11.7598 5.86259C11.7597 5.42846 11.7596 5.02328 11.8043 4.71304C11.8482 4.40836 11.9744 3.89557 12.4976 3.66059C13.021 3.4256 13.4881 3.67196 13.7449 3.84156C14.0065 4.01428 14.3093 4.28351 14.6338 4.57198ZM13.2629 5.36442C13.3759 5.46132 13.5109 5.58083 13.6758 5.72746L17.6482 9.25838C18.4493 9.97046 18.9898 10.4533 19.3399 10.8648C19.6763 11.26 19.7494 11.4908 19.7494 11.6875C19.7494 11.8842 19.6763 12.1149 19.3399 12.5102C18.9898 12.9217 18.4493 13.4044 17.6482 14.1165L13.6758 17.6475C13.5109 17.794 13.3759 17.9136 13.2629 18.0105C13.2601 17.8616 13.2598 17.6814 13.2598 17.4606V15.116C13.2598 14.7018 12.924 14.366 12.5098 14.366C10.5972 14.366 8.60972 14.82 6.89374 15.6561C5.97493 16.1038 5.11957 16.6686 4.39369 17.3443C4.76246 14.2972 5.85218 12.3314 7.15327 11.0865C8.77331 9.53644 10.8202 9.00889 12.5098 9.00889C12.924 9.00889 13.2598 8.67311 13.2598 8.25889V5.91431C13.2598 5.6936 13.2601 5.5133 13.2629 5.36442Z" fill="white"/>
<path d="M5.34805 17.8304C6.50784 17.8304 7.44805 16.8902 7.44805 15.7304C7.44805 14.5706 6.50784 13.6304 5.34805 13.6304C4.18825 13.6304 3.24805 14.5706 3.24805 15.7304C3.24805 16.8902 4.18825 17.8304 5.34805 17.8304Z" fill="white"/>
<path d="M8.38187 16.4869C10.1903 16.4869 11.6563 15.0209 11.6563 13.2124C11.6563 11.404 10.1903 9.93799 8.38187 9.93799C6.57344 9.93799 5.10742 11.404 5.10742 13.2124C5.10742 15.0209 6.57344 16.4869 8.38187 16.4869Z" fill="white"/>
<path d="M10.9912 15.2745C12.7997 15.2745 14.2657 13.8085 14.2657 12C14.2657 10.1916 12.7997 8.72559 10.9912 8.72559C9.18282 8.72559 7.7168 10.1916 7.7168 12C7.7168 13.8085 9.18282 15.2745 10.9912 15.2745Z" fill="white"/>
<path d="M14.7178 12.9996C16.5262 12.9996 17.9922 11.5336 17.9922 9.72513C17.9922 7.9167 16.5262 6.45068 14.7178 6.45068C12.9094 6.45068 11.4434 7.9167 11.4434 9.72513C11.4434 11.5336 12.9094 12.9996 14.7178 12.9996Z" fill="white"/>
<path d="M13.8994 9.01166C14.9905 9.01166 15.8749 8.12717 15.8749 7.0361C15.8749 5.94503 14.9905 5.06055 13.8994 5.06055C12.8083 5.06055 11.9238 5.94503 11.9238 7.0361C11.9238 8.12717 12.8083 9.01166 13.8994 9.01166Z" fill="white"/>
<path d="M14.0869 18.5136C15.178 18.5136 16.0624 17.6291 16.0624 16.5381C16.0624 15.447 15.178 14.5625 14.0869 14.5625C12.9958 14.5625 12.1113 15.447 12.1113 16.5381C12.1113 17.6291 12.9958 18.5136 14.0869 18.5136Z" fill="white"/>
<path d="M15.0902 16.576C16.4906 16.576 17.6258 15.4408 17.6258 14.0404C17.6258 12.6401 16.4906 11.5049 15.0902 11.5049C13.6899 11.5049 12.5547 12.6401 12.5547 14.0404C12.5547 15.4408 13.6899 16.576 15.0902 16.576Z" fill="white"/>
<path d="M17.7719 14.1903C19.1722 14.1903 20.3074 13.055 20.3074 11.6547C20.3074 10.2543 19.1722 9.11914 17.7719 9.11914C16.3715 9.11914 15.2363 10.2543 15.2363 11.6547C15.2363 13.055 16.3715 14.1903 17.7719 14.1903Z" fill="white"/>
</svg>
